<svg id="Layer_1" data-name="Layer 1" xmlns="http://www.w3.org/2000/svg" viewBox="0 0 269 113"><defs><style>.cls-1{fill:#ffdd17;}.cls-2{fill:#2b2b2b;}</style></defs><title>Artboard 1 copy</title><polygon class="cls-1" points="28.33 60.75 30.46 103.25 47.49 99 49.58 63.94 28.33 60.75"/><circle class="cls-2" cx="45.34" cy="82" r="1.06"/><polygon class="cls-2" points="40.03 56.5 40.29 24.63 41.36 24.63 42.15 5.5 40.54 5.5 37.38 5.5 35.77 5.5 36.57 24.63 37.63 24.63 37.88 56.5 24.08 56.5 28.33 107.5 28.6 107.5 26.21 58.63 51.71 60.75 49.29 103.25 49.56 103.25 53.84 56.5 40.03 56.5"/><path class="cls-1" d="M132.26,94.36V99.7L57.5,101.2l-.24-6.3Z"/><path d="M62.78,96.38a1.42,1.42,0,0,0-.38-.06.75.75,0,0,0-.39.09.3.3,0,0,0-.15.26.32.32,0,0,0,.09.24.71.71,0,0,0,.22.15,3.38,3.38,0,0,0,.35.12c.19.06.34.12.46.17a.84.84,0,0,1,.3.24.65.65,0,0,1,.12.41.68.68,0,0,1-.13.42.92.92,0,0,1-.36.28,1.49,1.49,0,0,1-.54.09,1.71,1.71,0,0,1-.59-.11,1.59,1.59,0,0,1-.5-.32l.17-.33a1.43,1.43,0,0,0,.44.3,1.26,1.26,0,0,0,.49.1.74.74,0,0,0,.44-.11A.35.35,0,0,0,63,98a.37.37,0,0,0-.09-.25.71.71,0,0,0-.22-.15l-.36-.12a4.31,4.31,0,0,1-.45-.16.78.78,0,0,1-.3-.24.73.73,0,0,1,0-.8.79.79,0,0,1,.35-.26,1.38,1.38,0,0,1,.52-.09,1.66,1.66,0,0,1,.49.07,1.36,1.36,0,0,1,.42.2l-.16.34A1.62,1.62,0,0,0,62.78,96.38Z"/><path d="M65.9,96h2.18v.35h-.9v2.43H66.8V96.34h-.9Z"/><path d="M70.76,96H72.7v.34H71.15v.86h1.38v.35H71.15v.88h1.59v.35h-2Z"/><path d="M77.68,98.77l-.29-.68H75.92l-.29.68h-.4L76.46,96h.4l1.23,2.78Zm-1.61-1h1.17l-.59-1.35Z"/><path d="M83.08,98.77h-.46l-1-1.28-.51.55v.73h-.38V96h.38v1.56L82.55,96H83l-1.1,1.2Z"/><path d="M87,96.38a1.31,1.31,0,0,0-.38-.06.75.75,0,0,0-.39.09.31.31,0,0,0-.14.26.32.32,0,0,0,.09.24.66.66,0,0,0,.21.15c.09,0,.2.08.35.12s.34.12.46.17a.7.7,0,0,1,.3.24.65.65,0,0,1,.12.41.68.68,0,0,1-.13.42.8.8,0,0,1-.36.28,1.44,1.44,0,0,1-.53.09,1.56,1.56,0,0,1-1.1-.43L85.7,98a1.37,1.37,0,0,0,.45.3,1.18,1.18,0,0,0,.48.1.72.72,0,0,0,.44-.11.33.33,0,0,0,.16-.29.37.37,0,0,0-.09-.25.61.61,0,0,0-.22-.15l-.36-.12-.45-.16a.78.78,0,0,1-.3-.24.65.65,0,0,1-.12-.41.59.59,0,0,1,.13-.39.76.76,0,0,1,.34-.26,1.38,1.38,0,0,1,.52-.09,1.61,1.61,0,0,1,.49.07,1.54,1.54,0,0,1,.43.2l-.16.34A1.69,1.69,0,0,0,87,96.38Z"/><path d="M92.5,98.83,92,98.38a1.4,1.4,0,0,1-.4.3,1,1,0,0,1-.45.11,1,1,0,0,1-.43-.1.84.84,0,0,1-.31-.28.77.77,0,0,1-.11-.39.63.63,0,0,1,.17-.45,1.64,1.64,0,0,1,.45-.33,2.31,2.31,0,0,1-.21-.35.87.87,0,0,1-.07-.31.57.57,0,0,1,.2-.44.76.76,0,0,1,.5-.17.72.72,0,0,1,.49.16.52.52,0,0,1,.18.41.59.59,0,0,1-.09.32.84.84,0,0,1-.23.23,2.87,2.87,0,0,1-.36.21c.13.15.35.38.64.67a2.4,2.4,0,0,0,.27-.53l.24.19a2.86,2.86,0,0,1-.3.54l.47.46Zm-.66-.65q-.47-.47-.72-.75a1.21,1.21,0,0,0-.34.26.41.41,0,0,0-.12.3.5.5,0,0,0,.15.37.6.6,0,0,0,.39.14A.9.9,0,0,0,91.84,98.18Zm-.63-1.07a2.26,2.26,0,0,0,.41-.26.42.42,0,0,0,.13-.31.3.3,0,0,0-.1-.24.36.36,0,0,0-.26-.09.42.42,0,0,0-.3.11.34.34,0,0,0-.1.26A1,1,0,0,0,91.21,97.11Z"/><path d="M97.23,96.17a.68.68,0,0,1,.11.92.7.7,0,0,1-.37.22.69.69,0,0,1,.62.7.65.65,0,0,1-.27.56,1.25,1.25,0,0,1-.74.2H95.37V96h1.19A1.13,1.13,0,0,1,97.23,96.17Zm-.29.89a.38.38,0,0,0,.14-.31.37.37,0,0,0-.14-.31.61.61,0,0,0-.4-.1h-.79v.83h.79A.68.68,0,0,0,96.94,97.06ZM97,98.3A.38.38,0,0,0,97.2,98a.38.38,0,0,0-.18-.33.83.83,0,0,0-.48-.12h-.79v.91h.79A.83.83,0,0,0,97,98.3Z"/><path d="M101,98.24a.82.82,0,0,0,.59.21.78.78,0,0,0,.58-.21.85.85,0,0,0,.21-.61V96h.38v1.64a1.07,1.07,0,0,1-1.17,1.17,1.17,1.17,0,0,1-.87-.31,1.15,1.15,0,0,1-.31-.86V96h.38v1.64A.85.85,0,0,0,101,98.24Z"/><path d="M107.53,98.77,107,97.9h-.87v.87h-.38V96h1.09a1.25,1.25,0,0,1,.82.24.88.88,0,0,1,.29.7,1,1,0,0,1-.16.56.91.91,0,0,1-.45.34l.65.94Zm-.71-1.21a.82.82,0,0,0,.55-.16.55.55,0,0,0,.19-.46.53.53,0,0,0-.19-.45.82.82,0,0,0-.55-.16h-.71v1.23Z"/><path d="M112.78,97.41h.34v1a1.93,1.93,0,0,1-.49.27,1.62,1.62,0,0,1-.56.1,1.43,1.43,0,0,1-.74-.19,1.47,1.47,0,0,1-.53-.52,1.38,1.38,0,0,1,.54-1.94,1.53,1.53,0,0,1,1.31-.08,1.41,1.41,0,0,1,.48.28l-.22.28a1,1,0,0,0-.38-.24,1.15,1.15,0,0,0-.44-.09,1.12,1.12,0,0,0-.55.14,1.15,1.15,0,0,0-.4.39,1,1,0,0,0-.14.54,1,1,0,0,0,.14.55,1.15,1.15,0,0,0,.4.39,1.06,1.06,0,0,0,.55.15,1.18,1.18,0,0,0,.36-.06,1.26,1.26,0,0,0,.33-.16Z"/><path d="M116.09,96H118v.34h-1.55v.86h1.38v.35h-1.38v.88h1.59v.35h-2Z"/><path d="M122.74,98.77l-.55-.87h-.87v.87h-.38V96H122a1.25,1.25,0,0,1,.82.24.88.88,0,0,1,.29.7,1,1,0,0,1-.16.56.91.91,0,0,1-.45.34l.65.94ZM122,97.56a.82.82,0,0,0,.55-.16.55.55,0,0,0,.19-.46.53.53,0,0,0-.19-.45.82.82,0,0,0-.55-.16h-.71v1.23Z"/><path d="M127.29,96.38a1.42,1.42,0,0,0-.38-.06.7.7,0,0,0-.39.09.3.3,0,0,0-.15.26.32.32,0,0,0,.09.24.71.71,0,0,0,.22.15,3.38,3.38,0,0,0,.35.12c.19.06.34.12.46.17a.73.73,0,0,1,.29.24.59.59,0,0,1,.13.41.75.75,0,0,1-.13.42.92.92,0,0,1-.36.28,1.53,1.53,0,0,1-.54.09,1.71,1.71,0,0,1-.59-.11,1.77,1.77,0,0,1-.51-.32L126,98a1.43,1.43,0,0,0,.44.3,1.26,1.26,0,0,0,.49.1.74.74,0,0,0,.44-.11.35.35,0,0,0,.16-.29.37.37,0,0,0-.09-.25.71.71,0,0,0-.22-.15l-.36-.12a4.31,4.31,0,0,1-.45-.16.78.78,0,0,1-.3-.24.73.73,0,0,1,0-.8.79.79,0,0,1,.35-.26,1.36,1.36,0,0,1,.51-.09,1.61,1.61,0,0,1,.49.07,1.32,1.32,0,0,1,.43.2l-.16.34A1.62,1.62,0,0,0,127.29,96.38Z"/><path class="cls-2" d="M67.1,75.35c0,.11,0,.27,0,.46a3,3,0,0,0,0,.51A2.89,2.89,0,0,1,67,77q0,.18-.12.21a.93.93,0,0,1-.29,0,2.19,2.19,0,0,0-.37,0h-.41c-1.14,0-2.25.06-3.32.06l-2.61,0-.8,0v-.34c.1-2.39.15-4.49.15-6.32,0-1.15,0-2.43-.05-3.84,0-.48,0-1.44,0-2.89a2.52,2.52,0,0,1,.8-.09,3.33,3.33,0,0,1,1.27.19c0,1,0,1.73,0,2.24s0,1.54,0,2.78l0,2.76v1.19c0,1,0,1.77,0,2.36v0l.78,0,1.09,0c.39,0,1.07,0,2,.08s1.41.08,1.66.08A2.12,2.12,0,0,0,67.1,75.35Z"/><path class="cls-2" d="M72.31,63.78q1.88,8.28,3,13.39v0a4.36,4.36,0,0,1-.81.08,3.42,3.42,0,0,1-.44,0,3.28,3.28,0,0,1-.44-.08h0c-.09-.25-.21-.69-.36-1.31s-.36-1.36-.51-1.84c-.59,0-1.35,0-2.3,0h-.8s0,.27-.14.78c-.11.69-.22,1.27-.32,1.72s-.21.69-.34.71a.66.66,0,0,1-.19,0l-.51,0q-.36,0-.84,0h-.21v0a6.14,6.14,0,0,0,.17-1q.48-3,1.11-6.09A50.13,50.13,0,0,1,70,63.88l.31,0h.42A13.71,13.71,0,0,0,72.31,63.78Zm-1.73,8.69h2.17a49.54,49.54,0,0,0-1.28-6.2.88.88,0,0,0-.28-.06c-.16,0-.28.12-.38.37a10,10,0,0,0-.42,1.66q-.27,1.3-.63,3.27l-.17,1h1Z"/><path class="cls-2" d="M87.92,67.85v.25a3.89,3.89,0,0,1-1.56,3.07,6.64,6.64,0,0,1-4,1.06l-.8,0a3.41,3.41,0,0,1,0,.51v.76c0,.48,0,1.65.06,3.5v0l-.06,0a4.51,4.51,0,0,1-1.12.11,8.69,8.69,0,0,1-.89,0q-.06-1.27-.06-4.26V69.05c0-2,0-3.66-.08-5.08a10.38,10.38,0,0,1,2.78-.36,7.4,7.4,0,0,1,4,1A3.75,3.75,0,0,1,87.92,67.85Zm-1.86-.45a2.15,2.15,0,0,0-.8-1.3,3.67,3.67,0,0,0-1.06-.51,5.19,5.19,0,0,0-1.37-.15,6.94,6.94,0,0,0-1.6.13c0,.14,0,.33,0,.55v2c0,1.23.06,2,.11,2.4a17.55,17.55,0,0,0,2.14-.12,4.56,4.56,0,0,0,1.83-.61,1.7,1.7,0,0,0,.84-1.55A2.85,2.85,0,0,0,86.06,67.4Z"/><path class="cls-2" d="M95,64.43c.57-.06.95-.09,1.16-.09a1.51,1.51,0,0,1,.7.13c.06,1.36.09,2.58.09,3.67a55,55,0,0,1-.32,6.18,3.68,3.68,0,0,1-1,2.15,3.28,3.28,0,0,1-2.13,1l-.61,0A5,5,0,0,1,90,76.65a2.94,2.94,0,0,1-1.29-2.44c0-.49,0-1.22,0-2.21s0-1.78,0-2.3c0-1.42,0-2.48,0-3.18l0-2.24,0,0h0l.93,0a4.69,4.69,0,0,1,.92.08c0,.24,0,.58,0,1l0,.76c0,1.22-.06,2.29-.06,3.2a28.09,28.09,0,0,0,.15,3.23,9.81,9.81,0,0,0,.55,2.3,1.52,1.52,0,0,0,.86.65,2.87,2.87,0,0,0,.66.09,2,2,0,0,0,.92-.2,1.41,1.41,0,0,0,.64-.59,8.21,8.21,0,0,0,.59-2.49A35,35,0,0,0,95,68.77l0-2.93C95,65.2,95,64.74,95,64.43Z"/><path class="cls-2" d="M106.14,75.52v0a6.43,6.43,0,0,1-.09,1.57c-.61,0-1.55,0-2.8,0-1,0-1.74,0-2.24,0q-1.64,0-2.76-.09,0-2.16-.06-4.26c0-1.88,0-3.27,0-4.19q0-2.73.12-4.56c2.34-.12,4.5-.17,6.48-.17a7.64,7.64,0,0,1,1.39,0,3.87,3.87,0,0,1,0,.42c0,.26,0,.44,0,.55l0,.58v.19c-.91.06-1.72.09-2.41.09h-1.66c-.73,0-1.36,0-1.88.06l-.08,0a12.68,12.68,0,0,1,0,1.73c0,.63,0,1,0,1.19a3.8,3.8,0,0,0,.07.88l0,0,1.94,0c.59,0,1.06,0,1.43,0h0a7.64,7.64,0,0,1,0,.8c0,.12,0,.25,0,.39a2.49,2.49,0,0,0,0,.47l-.71.06h-.6l-1.07,0a4.06,4.06,0,0,0-1,.1,7.64,7.64,0,0,0-.08,1.24c0,.35,0,.62,0,.81s0,.42,0,.77,0,.67,0,1l0,0c.91,0,2.08,0,3.5.08l1.75,0Z"/><path class="cls-2" d="M116.18,77.13l-1,0c-.57,0-1,0-1.24,0-.25-.3-.52-.65-.81-1-.71-.89-1.28-1.58-1.69-2.08a15.85,15.85,0,0,0-1.32-1.4l-.91-.75c0,.44,0,.85,0,1.26v.65c0,1.1,0,2.18.13,3.25a4.16,4.16,0,0,1-1.23.15l-.61,0h-.4a27.79,27.79,0,0,0,.08-3.37q0-3.07-.06-6.2T107,63.9c.82-.12,1.48-.2,2-.26s1.05-.08,1.63-.08a11.84,11.84,0,0,1,1.39.07,4,4,0,0,1,2,.64,4.16,4.16,0,0,1,1.42,1.5,4,4,0,0,1,.51,2,3.9,3.9,0,0,1-.57,2,3.13,3.13,0,0,1-.71.94,2.69,2.69,0,0,1-1.2.5,10.05,10.05,0,0,1-2.27.15l1.2,1.35c.64.71,1.21,1.36,1.7,1.93s1.19,1.42,2.1,2.54Zm-5-7.47a7.65,7.65,0,0,0,1.31-.08c.89-.15,1.33-.81,1.33-2a2,2,0,0,0-.81-1.71,3.44,3.44,0,0,0-2.1-.59,11.6,11.6,0,0,0-2.15.23,10.65,10.65,0,0,1,.14,2l0,1.29a7.51,7.51,0,0,0,0,.77h0Q110.4,69.66,111.22,69.66Z"/><path class="cls-2" d="M116.2,63.8c.75,0,1.3,0,1.67,0h1.77a43.81,43.81,0,0,1,4.58.2,4.47,4.47,0,0,1,0,.59,11,11,0,0,1-.09,1.37,5.73,5.73,0,0,0-1.18-.05c-.41,0-.81,0-1.22,0h-.49a.45.45,0,0,1,0,.23c0,.08,0,.93,0,2.57,0,.39,0,.72,0,1q0,5,.11,7.36v0a8.58,8.58,0,0,1-1,0,6.26,6.26,0,0,0-1.13.08,1.71,1.71,0,0,1,0-.26c0-.12,0-.25,0-.41V75.38c0-.25,0-.71,0-1.36s0-1.36,0-1.81c0-1.81-.07-3.86-.13-6.12V66a11.15,11.15,0,0,0-2.11-.15,5.91,5.91,0,0,1-.67,0,3.07,3.07,0,0,1-.07-.72C116.2,64.71,116.2,64.27,116.2,63.8Z"/><path class="cls-2" d="M128.71,63.78q1.89,8.28,3,13.39v0a4.47,4.47,0,0,1-.82.08,3.42,3.42,0,0,1-.44,0,3.28,3.28,0,0,1-.44-.08h0c-.08-.25-.2-.69-.36-1.31s-.36-1.36-.51-1.84c-.58,0-1.35,0-2.3,0H126s0,.27-.13.78c-.12.69-.22,1.27-.33,1.72s-.21.69-.34.71a.61.61,0,0,1-.19,0l-.5,0c-.25,0-.53,0-.85,0h-.21v0a5.11,5.11,0,0,0,.17-1q.48-3,1.12-6.09a48.42,48.42,0,0,1,1.7-6.17l.3,0h.42A13.71,13.71,0,0,0,128.71,63.78ZM127,72.47h2.17a47.38,47.38,0,0,0-1.28-6.2.88.88,0,0,0-.28-.06c-.15,0-.28.12-.38.37a12.61,12.61,0,0,0-.42,1.66q-.27,1.3-.63,3.27l-.17,1h1Z"/><path class="cls-2" d="M63.73,79.49q1.89,8.28,3,13.39v0a4.47,4.47,0,0,1-.82.07l-.44,0a3.28,3.28,0,0,1-.44-.08h0c-.09-.25-.21-.69-.37-1.31s-.36-1.36-.51-1.85c-.58,0-1.35,0-2.3,0H61s0,.27-.13.78c-.12.69-.22,1.27-.32,1.72s-.22.68-.35.71a.61.61,0,0,1-.19,0l-.5,0H58.48v0a5.29,5.29,0,0,0,.17-1q.48-3,1.12-6.09a48.42,48.42,0,0,1,1.7-6.17l.3,0h.42C62.69,79.57,63.2,79.54,63.73,79.49ZM62,88.18c.81,0,1.54,0,2.17,0A50.44,50.44,0,0,0,62.9,82a.93.93,0,0,0-.29-.06c-.15,0-.28.12-.38.37a12.61,12.61,0,0,0-.42,1.66q-.27,1.29-.63,3.27l-.17,1h.38Z"/><path class="cls-2" d="M76.33,86.85l0,6.07a6.37,6.37,0,0,0-.9-.06l-.81,0c-.06-1-.09-2-.1-2.9s0-1.42,0-1.63c0-1.81,0-3.5,0-5.07a4.94,4.94,0,0,0-.26.49l-.71,1.54q-.14.27-.81,1.83c-.08.19-.14.33-.19.43s-.1.14-.14.14a2.52,2.52,0,0,1-.48-.74c-.21-.42-.5-1-.87-1.87-.14-.34-.38-.89-.74-1.65,0,.75,0,1.74,0,3,0,1.41,0,2.35,0,2.82,0,1.09.06,2.29.15,3.59a8.77,8.77,0,0,1-1.23.06h-.61s-.09-.2-.11-.6,0-1.22,0-2.46c0-1.7,0-5,0-10a2.92,2.92,0,0,1,.72-.07h.52l.53,0h0a6.91,6.91,0,0,1,.49,1l.52,1.15q.45,1,1.08,2.16a7.55,7.55,0,0,0,.53-1.2L73.2,82c.17-.43.37-.88.58-1.34a4.91,4.91,0,0,1,.56-1,10.33,10.33,0,0,0,1,0l1,0c0,.68,0,1.19,0,1.54s0,1,0,1.92l0,1.88C76.37,85.81,76.36,86.43,76.33,86.85Z"/><path class="cls-2" d="M83.4,79.49q1.89,8.28,3,13.39v0a4.47,4.47,0,0,1-.82.07l-.44,0a2.79,2.79,0,0,1-.43-.08h0c-.09-.25-.21-.69-.36-1.31S84,90.19,83.8,89.7c-.58,0-1.35,0-2.3,0h-.8s0,.27-.13.78c-.11.69-.22,1.27-.32,1.72s-.22.68-.35.71a.56.56,0,0,1-.19,0l-.5,0H78.15v0a5.8,5.8,0,0,0,.18-1q.47-3,1.11-6.09a48.42,48.42,0,0,1,1.7-6.17l.3,0h.42C82.36,79.57,82.87,79.54,83.4,79.49Zm-1.73,8.69c.81,0,1.54,0,2.17,0A48.19,48.19,0,0,0,82.57,82a.93.93,0,0,0-.29-.06c-.15,0-.28.12-.38.37a12.61,12.61,0,0,0-.42,1.66c-.18.86-.38,2-.63,3.27l-.17,1h.38Z"/><path class="cls-2" d="M97.11,92.84l-1,0c-.57,0-1,0-1.24,0-.25-.3-.53-.65-.82-1l-1.68-2.07a17.49,17.49,0,0,0-1.32-1.41l-.91-.74c0,.43,0,.85,0,1.26v.64c0,1.11,0,2.19.13,3.26a4.21,4.21,0,0,1-1.23.15l-.61,0a2.59,2.59,0,0,0-.4,0,29.84,29.84,0,0,0,.07-3.37q0-3.07,0-6.21c0-2.08-.09-3.32-.16-3.71.83-.12,1.49-.2,2-.26a13.68,13.68,0,0,1,1.63-.09,11.84,11.84,0,0,1,1.39.08,4,4,0,0,1,2,.64,4.16,4.16,0,0,1,1.42,1.5,4,4,0,0,1,.51,2,3.93,3.93,0,0,1-.57,2,3.13,3.13,0,0,1-.71.94,2.69,2.69,0,0,1-1.2.5,10.1,10.1,0,0,1-2.27.15l1.2,1.35c.64.71,1.21,1.35,1.7,1.92s1.19,1.42,2.1,2.55Zm-5-7.47a8.9,8.9,0,0,0,1.32-.08c.88-.15,1.33-.81,1.33-2A2,2,0,0,0,94,81.58a3.5,3.5,0,0,0-2.1-.58,12.4,12.4,0,0,0-2.15.22,11,11,0,0,1,.13,2l0,1.29a6.64,6.64,0,0,0,0,.76h0C90.85,85.34,91.6,85.37,92.14,85.37Z"/><path class="cls-2" d="M99.5,79.44a1.57,1.57,0,0,1,.32,0,4.83,4.83,0,0,1,.53,0l1.3.07v.08c0,.82,0,2.08,0,3.78s-.06,3.39-.06,5.12,0,3,.08,4.33a1.48,1.48,0,0,1-.76.12l-1.05,0a3.59,3.59,0,0,0-.47,0c.05-1,.07-2.11.07-3.44,0-.81,0-1.42,0-1.84l-.05-3.25,0-1.7a29.34,29.34,0,0,1,.17-3.27Z"/><path class="cls-2" d="M112.65,91.05c0,.12,0,.27,0,.47a2.88,2.88,0,0,0,0,.5,3.13,3.13,0,0,1,0,.64c0,.12-.08.19-.13.21a.85.85,0,0,1-.28,0,2.26,2.26,0,0,0-.37,0h-.41q-1.71.06-3.33.06l-2.6,0c-.17,0-.44,0-.8,0v-.34c.1-2.39.15-4.49.15-6.32q0-1.73-.06-3.84c0-.48,0-1.44,0-2.89a2.57,2.57,0,0,1,.8-.09,3.38,3.38,0,0,1,1.28.19c0,1,0,1.73,0,2.24s0,1.53,0,2.78l0,2.75v1.2c0,1,0,1.76,0,2.36v0l.78,0,1.08,0c.39,0,1.07,0,2,.08s1.41.07,1.65.07A1.29,1.29,0,0,0,112.65,91.05Z"/><path class="cls-2" d="M122.36,91.05a4.38,4.38,0,0,1,0,.47,2.14,2.14,0,0,0,0,.5,2.93,2.93,0,0,1,0,.64q0,.18-.12.21a1,1,0,0,1-.29,0,2.22,2.22,0,0,0-.37,0h-.41q-1.71.06-3.33.06l-2.6,0c-.17,0-.43,0-.8,0v-.34c.1-2.39.15-4.49.15-6.32q0-1.73-.06-3.84c0-.48,0-1.44,0-2.89a2.49,2.49,0,0,1,.79-.09,3.38,3.38,0,0,1,1.28.19c0,1,0,1.73,0,2.24s0,1.53,0,2.78l0,2.75v1.2c0,1,0,1.76,0,2.36v0l.78,0,1.08,0c.4,0,1.07,0,2,.08s1.41.07,1.65.07A1.29,1.29,0,0,0,122.36,91.05Z"/><path class="cls-2" d="M128.71,79.49q1.89,8.28,3,13.39v0a4.47,4.47,0,0,1-.82.07l-.44,0a3.28,3.28,0,0,1-.44-.08h0c-.09-.25-.21-.69-.37-1.31s-.36-1.36-.51-1.85c-.58,0-1.35,0-2.3,0H126s0,.27-.13.78c-.12.69-.22,1.27-.33,1.72s-.21.68-.34.71a.61.61,0,0,1-.19,0l-.5,0h-1.06v0a5.29,5.29,0,0,0,.17-1q.48-3,1.12-6.09a48.42,48.42,0,0,1,1.7-6.17l.3,0h.42C127.67,79.57,128.18,79.54,128.71,79.49ZM127,88.18c.81,0,1.53,0,2.17,0A46.93,46.93,0,0,0,127.87,82a.83.83,0,0,0-.28-.06c-.15,0-.28.12-.38.37a12.61,12.61,0,0,0-.42,1.66q-.27,1.29-.63,3.27l-.17,1h.38Z"/></svg>